Coordinates
version=1
nRows=6
nColumns=40
inDegrees=yes

Units are S.I. units (second, meters, Newtons, ...)
If the header above contains a line with 'inDegrees', this indicates whether rotational values are in degrees (yes) or radians (no).

endheader
time	pelvis_tilt	pelvis_list	pelvis_rotation	pelvis_tx	pelvis_ty	pelvis_tz	hip_flexion_r	hip_adduction_r	hip_rotation_r	knee_angle_r	knee_angle_r_beta	ankle_angle_r	subtalar_angle_r	mtp_angle_r	hip_flexion_l	hip_adduction_l	hip_rotation_l	knee_angle_l	knee_angle_l_beta	ankle_angle_l	subtalar_angle_l	mtp_angle_l	lumbar_extension	lumbar_bending	lumbar_rotation	arm_flex_r	arm_add_r	arm_rot_r	elbow_flex_r	pro_sup_r	wrist_flex_r	wrist_dev_r	arm_flex_l	arm_add_l	arm_rot_l	elbow_flex_l	pro_sup_l	wrist_flex_l	wrist_dev_l
     11.05000000000000071054	    -10.68367102281576741518	     -1.75764448438865428237	    178.17242283378237743818	      0.17778096096932299863	      0.86715266571367943804	     -0.91910192213821639839	      3.98217897435880008317	    -32.61858192682153401165	    -31.05091161754880246804	     17.01781940580618623926	      0.29701698014110294865	    -11.62822946618225294912	      0.00000000000000000000	      0.00000000000000000000	     -3.11334216925313223001	    -27.81689869728965192053	    -37.26582225837385209388	     13.73786987178648644203	      0.23977106147320545460	     -8.59707077005971953554	      0.00000000000000000000	      0.00000000000000000000	    -33.73518103643877452669	      0.17773332901741764611	     -2.09187046934639431228	     22.32686193126813378740	     -5.85716338002327496781	     47.47581483201194885169	      3.38534642644235095332	     17.77515606623794752750	      0.00000000000000000000	      0.00000000000000000000	     26.85819927219539238195	     -6.86014166222101096082	     80.16070994384000414357	      8.89039810513601480579	     81.66422185813307521585	      0.00000000000000000000	      0.00000000000000000000
     11.05499999999999971578	    -11.07895131220646689485	     -2.70584470807022325900	    178.11339014032196814696	      0.17688125389123948716	      0.86796096234021058446	     -0.91886395576511503691	      3.54615956681111343940	    -33.65995218794893872882	    -30.74976170820382748161	     16.95205185158091154562	      0.29586911977888802339	    -11.55087056949844637188	      0.00000000000000000000	      0.00000000000000000000	     -3.86593335950697891690	    -26.49150061811509360155	    -37.38292169209867665813	     13.06062681473179765135	      0.22795094029132931257	     -8.92221538651176082624	      0.00000000000000000000	      0.00000000000000000000	    -33.56770891557609814981	     -0.72901737230392826827	     -2.57183995799201969845	     21.84522636652297578053	     -6.06246638792687875252	     49.99780917721404449594	      3.70327717564052827370	     15.58245627662424759308	      0.00000000000000000000	      0.00000000000000000000	     26.61884907373287845189	     -6.92076980139149799953	     79.50780813641544852999	      8.81102756364966310798	     82.60549173700916014695	      0.00000000000000000000	      0.00000000000000000000
     11.06000000000000049738	    -11.46187459628289317948	     -3.38588480678359804443	    178.27994717905102106670	      0.17561020996815535078	      0.86862203636698775977	     -0.91823833025945378328	      2.86051407367149623795	    -34.41967343011648239326	    -30.93307883192096241487	     16.82165622633222312743	      0.29359328678810175939	    -11.51228933858679148727	      0.00000000000000000000	      0.00000000000000000000	     -4.42903920584134525029	    -25.56185748075639452281	    -37.36287102057310249847	     12.59761396970854363531	      0.21986984166664730322	     -9.16518737222469503934	      0.00000000000000000000	      0.00000000000000000000	    -33.37944630039633153729	     -1.27944041690208032414	     -2.85793927154070326324	     21.53264853995775851558	     -5.99012114515876614718	     48.40421718809339068912	      3.55978657155308164661	     17.38162277388323317950	      0.00000000000000000000	      0.00000000000000000000	     26.42290433797826310069	     -6.94989112168053502216	     79.80442378483121501631	      8.91140226056442408265	     82.30469994470431061018	      0.00000000000000000000	      0.00000000000000000000
     11.06499999999999950262	    -11.81178921440595530612	     -3.81910739767135254397	    178.39332354449575746003	      0.17440288051915880940	      0.86908277287246449294	     -0.91758964252031594011	      2.24714369091752397267	    -34.90166500815581684947	    -30.97227364225897261463	     16.69065181491344418419	      0.29130682847420680259	    -11.49125566462059211403	      0.00000000000000000000	      0.00000000000000000000	     -5.00467248252736229830	    -24.91766138607652081305	    -37.36863551071289890615	     12.15063746513657783055	      0.21206862998281100774	     -9.23890802917007292194	      0.00000000000000000000	      0.00000000000000000000	    -33.15643536259955936885	     -1.59140691534124689710	     -3.03936110360579858636	     21.26880157944360405509	     -5.99833146601260125408	     47.25335987879334709305	      3.48626373304871917114	     18.35648797600945059116	      0.00000000000000000000	      0.00000000000000000000	     26.12398103271735294584	     -6.99493945687295681779	     79.45459140582241275297	      9.09659908397550509562	     82.22896614912956181342	      0.00000000000000000000	      0.00000000000000000000
     11.07000000000000028422	    -11.96877396272815019529	     -4.51914822479453537341	    178.47357369883553701584	      0.17333428205501985597	      0.86930562479703465950	     -0.91719371903774715715	      1.97987498525412197736	    -35.71124562024662907334	    -30.80622051460830945757	     16.73183824581425938050	      0.29202566730057116784	    -11.35378680928718431176	      0.00000000000000000000	      0.00000000000000000000	     -5.23798756643031726554	    -24.07399513192761730807	    -37.44331228779520870376	     12.02866184019365114466	      0.20993975372037920746	     -9.10483615794236555985	      0.00000000000000000000	      0.00000000000000000000	    -32.75095536616505143002	     -2.21716378853478301991	     -3.33708197642204273947	     20.85036892406224851015	     -6.03273356926529302768	     47.42324836062633153233	      3.59731912254241636973	     17.96957714486710955271	      0.00000000000000000000	      0.00000000000000000000	     25.85280666393397197567	     -6.99729215780376723188	     79.12264570674928165772	      9.05779829825098303786	     82.38585245125580058811	      0.00000000000000000000	      0.00000000000000000000
     11.07499999999999928946	    -12.11498017214191058599	     -4.64992725990569244487	    178.56778272592706002797	      0.17231154762753794762	      0.86931488483804320033	     -0.91645996623963377203	      1.64867386699496920599	    -35.84400767153223199557	    -30.64331853044694753407	     16.65556533366346769753	      0.29069445385345543675	    -11.24791297227946174075	      0.00000000000000000000	      0.00000000000000000000	     -5.45232077158205452605	    -23.92513132992131730248	    -37.50260772016758892278	     12.04140436748591902472	      0.21016215277665453720	     -9.09752653432500757447	      0.00000000000000000000	      0.00000000000000000000	    -32.33673288045424953907	     -2.23977744916277332621	     -3.34468315325405463057	     20.63835313383739133997	     -6.17654632201026654315	     47.39520685508946939990	      3.52861061995911695632	     17.93435543487975536436	      0.00000000000000000000	      0.00000000000000000000	     25.56613483197446257122	     -6.90399852455467399892	     79.08956737244460555303	      9.13656187260169261322	     82.40131827633116756715	      0.00000000000000000000	      0.00000000000000000000
